# Blender v2.79 (sub 0) OBJ File: ''
# www.blender.org
o Cube
v 1.000000 -1.000000 -1.000000
v 1.000000 -1.000000 1.000000
v -1.000000 -1.000000 1.000000
v -1.000000 -1.000000 -1.000000
v 1.000000 1.000000 -0.999999
v 0.999999 1.000000 1.000001
v -1.000000 1.000000 1.000000
v -1.000000 1.000000 -1.000000
vn 0.0000 -1.0000 0.0000
vn 1.0000 -0.0000 0.0000
vn -1.0000 -0.0000 -0.0000
vn 0.0000 -0.0000 1.0000
vn 0.0000 0.0000 -1.0000
vn 0.0000 1.0000 0.0000
s off
f 2//1 4//1 1//1
f 2//1 3//1 4//1
f 5//2 2//2 1//2
f 3//3 8//3 4//3
f 5//2 6//2 2//2
f 3//3 7//3 8//3
f 6//4 3//4 2//4
f 1//5 8//5 5//5
f 6//4 7//4 3//4
f 1//5 4//5 8//5
f 8//6 6//6 5//6
f 8//6 7//6 6//6
